<svg xmlns="http://www.w3.org/2000/svg" width="20.562" height="12.91" viewBox="0 0 20.562 12.91">
  <metadata><?xpacket begin="﻿" id="W5M0MpCehiHzreSzNTczkc9d"?>
<x:xmpmeta xmlns:x="adobe:ns:meta/" x:xmptk="Adobe XMP Core 5.6-c140 79.160451, 2017/05/06-01:08:21        ">
   <rdf:RDF xmlns:rdf="http://www.w3.org/1999/02/22-rdf-syntax-ns#">
      <rdf:Description rdf:about=""/>
   </rdf:RDF>
</x:xmpmeta>
                                                                                                    
                                                                                                    
                                                                                                    
                                                                                                    
                                                                                                    
                                                                                                    
                                                                                                    
                                                                                                    
                                                                                                    
                                                                                                    
                                                                                                    
                                                                                                    
                                                                                                    
                                                                                                    
                                                                                                    
                                                                                                    
                                                                                                    
                                                                                                    
                                                                                                    
                                                                                                    
                           
<?xpacket end="w"?></metadata>
<defs>
    <style>
      .cls-1 {
        fill: #0065f8;
        fill-rule: evenodd;
      }
    </style>
  </defs>
  <path id="Behance" class="cls-1" d="M665.562,4906.22H660.43v-1.24h5.132v1.24Zm-0.522,4.99h-4.1a1.956,1.956,0,0,1,2.089-1.95,1.856,1.856,0,0,1,2.009,1.95h0Zm-3.521,3.31a2.393,2.393,0,0,1-.577-1.72h6.609c0.014-.2.02-0.36,0.02-0.47a5.926,5.926,0,0,0-.507-2.49,4.2,4.2,0,0,0-3.952-2.48,4.451,4.451,0,0,0-3.38,1.38,5.324,5.324,0,0,0-.041,6.95,4.5,4.5,0,0,0,3.421,1.33,4.121,4.121,0,0,0,4.289-3.08h-2.22a1.5,1.5,0,0,1-.764.87,2.583,2.583,0,0,1-1.225.32A2.183,2.183,0,0,1,661.519,4914.52Zm-11.737-3.38h3.034c1.332,0,2,.61,2,1.81q0,1.68-2.059,1.68h-2.974v-3.49Zm0-4.86h2.612c1.272,0,1.908.48,1.908,1.45a1.388,1.388,0,0,1-.457,1.14,1.952,1.952,0,0,1-1.24.37h-2.823v-2.96ZM647,4916.78h6.137a6.533,6.533,0,0,0,1.346-.13,5.042,5.042,0,0,0,1.216-.42,4,4,0,0,0,.989-0.72,2.987,2.987,0,0,0,.663-1.04,3.672,3.672,0,0,0,.246-1.37,3.5,3.5,0,0,0-.583-2.05,3.01,3.01,0,0,0-1.727-1.15,2.752,2.752,0,0,0,1.727-2.64,3.439,3.439,0,0,0-.316-1.55,2.231,2.231,0,0,0-.9-0.97,4.587,4.587,0,0,0-1.271-.48,8.05,8.05,0,0,0-1.557-.14H647v12.66Z" transform="translate(-647 -4904.12)"/>
</svg>
