<svg xmlns="http://www.w3.org/2000/svg" width="11.156" height="12" viewBox="0 0 11.156 12">
  <metadata><?xpacket begin="﻿" id="W5M0MpCehiHzreSzNTczkc9d"?>
<x:xmpmeta xmlns:x="adobe:ns:meta/" x:xmptk="Adobe XMP Core 5.6-c140 79.160451, 2017/05/06-01:08:21        ">
   <rdf:RDF xmlns:rdf="http://www.w3.org/1999/02/22-rdf-syntax-ns#">
      <rdf:Description rdf:about=""/>
   </rdf:RDF>
</x:xmpmeta>
                                                                                                    
                                                                                                    
                                                                                                    
                                                                                                    
                                                                                                    
                                                                                                    
                                                                                                    
                                                                                                    
                                                                                                    
                                                                                                    
                                                                                                    
                                                                                                    
                                                                                                    
                                                                                                    
                                                                                                    
                                                                                                    
                                                                                                    
                                                                                                    
                                                                                                    
                                                                                                    
                           
<?xpacket end="w"?></metadata>
<defs>
    <style>
      .cls-1 {
        fill: #252525;
        fill-rule: evenodd;
      }
    </style>
  </defs>
  <path id="Cal" class="cls-1" d="M382.857,4117.93h1.929v1.93h-1.929v-1.93Zm2.357,0h2.143v1.93h-2.143v-1.93Zm-2.357-2.57h1.929v2.14h-1.929v-2.14Zm2.357,0h2.143v2.14h-2.143v-2.14Zm-2.357-2.36h1.929v1.93h-1.929V4113Zm4.929,4.93h2.142v1.93h-2.142v-1.93Zm-2.572-4.93h2.143v1.93h-2.143V4113Zm5.143,4.93h1.929v1.93h-1.929v-1.93Zm-2.571-2.57h2.142v2.14h-2.142v-2.14Zm-2.421-3.5a0.188,0.188,0,0,1-.151.07h-0.428a0.187,0.187,0,0,1-.151-0.07,0.2,0.2,0,0,1-.064-0.15v-1.92a0.24,0.24,0,0,1,.064-0.16,0.212,0.212,0,0,1,.151-0.06h0.428a0.214,0.214,0,0,1,.151.06,0.24,0.24,0,0,1,.064.16v1.92A0.2,0.2,0,0,1,385.365,4111.86Zm4.992,3.5h1.929v2.14h-1.929v-2.14Zm-2.571-2.36h2.142v1.93h-2.142V4113Zm2.571,0h1.929v1.93h-1.929V4113Zm0.151-1.14a0.188,0.188,0,0,1-.151.07h-0.429a0.185,0.185,0,0,1-.15-0.07,0.2,0.2,0,0,1-.064-0.15v-1.92a0.235,0.235,0,0,1,.064-0.16,0.21,0.21,0,0,1,.15-0.06h0.429a0.214,0.214,0,0,1,.151.06,0.238,0.238,0,0,1,.063.16v1.92A0.2,0.2,0,0,1,390.508,4111.86Zm2.38-1.18a0.816,0.816,0,0,0-.6-0.25h-0.857v-0.64a1.084,1.084,0,0,0-1.072-1.08h-0.429a1.084,1.084,0,0,0-1.071,1.08v0.64h-2.571v-0.64a1.084,1.084,0,0,0-1.072-1.08h-0.428a1.084,1.084,0,0,0-1.072,1.08v0.64h-0.857a0.82,0.82,0,0,0-.6.25,0.83,0.83,0,0,0-.254.61v8.57a0.86,0.86,0,0,0,.857.85h9.429a0.862,0.862,0,0,0,.857-0.85v-8.57A0.827,0.827,0,0,0,392.888,4110.68Z" transform="translate(-382 -4108.72)"/>
</svg>
