<svg xmlns="http://www.w3.org/2000/svg" width="18.28" height="16" viewBox="0 0 18.28 16">
  <metadata><?xpacket begin="﻿" id="W5M0MpCehiHzreSzNTczkc9d"?>
<x:xmpmeta xmlns:x="adobe:ns:meta/" x:xmptk="Adobe XMP Core 5.6-c140 79.160451, 2017/05/06-01:08:21        ">
   <rdf:RDF xmlns:rdf="http://www.w3.org/1999/02/22-rdf-syntax-ns#">
      <rdf:Description rdf:about=""/>
   </rdf:RDF>
</x:xmpmeta>
                                                                                                    
                                                                                                    
                                                                                                    
                                                                                                    
                                                                                                    
                                                                                                    
                                                                                                    
                                                                                                    
                                                                                                    
                                                                                                    
                                                                                                    
                                                                                                    
                                                                                                    
                                                                                                    
                                                                                                    
                                                                                                    
                                                                                                    
                                                                                                    
                                                                                                    
                                                                                                    
                           
<?xpacket end="w"?></metadata>
<defs>
    <style>
      .cls-1 {
        fill: #464646;
        fill-rule: evenodd;
      }
    </style>
  </defs>
  <path id="Shopping_cart" class="cls-1" d="M1501.14,77.144h-16a1.142,1.142,0,0,0,0,2.285h0.14l1.02,5.91a1.15,1.15,0,0,0,1.13.946h11.42a1.15,1.15,0,0,0,1.13-.946l1.02-5.91h0.14A1.142,1.142,0,0,0,1501.14,77.144Zm-12.81,7.141h-0.05a0.585,0.585,0,0,1-.57-0.527l-0.28-3.713a0.572,0.572,0,0,1,.52-0.616,0.578,0.578,0,0,1,.62.527l0.29,3.713A0.586,0.586,0,0,1,1488.33,84.285Zm3.67-.572a0.576,0.576,0,0,1-.57.572,0.569,0.569,0,0,1-.57-0.572V80a0.569,0.569,0,0,1,.57-0.572A0.576,0.576,0,0,1,1492,80v3.713Zm3.43,0a0.575,0.575,0,0,1-1.15,0V80a0.575,0.575,0,0,1,1.15,0v3.713Zm3.14,0.045a0.585,0.585,0,0,1-.57.527h-0.05a0.571,0.571,0,0,1-.52-0.616l0.28-3.713a0.578,0.578,0,0,1,.62-0.527,0.572,0.572,0,0,1,.52.616ZM1488.25,72.9a1.138,1.138,0,0,1,1.11-.893h1.5a0.569,0.569,0,0,0,.57.572h3.42a0.578,0.578,0,0,0,.58-0.572h1.49a1.138,1.138,0,0,1,1.11.893l0.83,3.678h1.18l-0.9-3.937a2.262,2.262,0,0,0-2.22-1.776h-1.49a0.578,0.578,0,0,0-.58-0.571h-3.42a0.569,0.569,0,0,0-.57.571h-1.5a2.262,2.262,0,0,0-2.22,1.776l-0.9,3.937h1.18Z" transform="translate(-1484 -70.281)"/>
</svg>
