<svg xmlns="http://www.w3.org/2000/svg" width="23.156" height="14.72" viewBox="0 0 23.156 14.72">
  <metadata><?xpacket begin="﻿" id="W5M0MpCehiHzreSzNTczkc9d"?>
<x:xmpmeta xmlns:x="adobe:ns:meta/" x:xmptk="Adobe XMP Core 5.6-c140 79.160451, 2017/05/06-01:08:21        ">
   <rdf:RDF xmlns:rdf="http://www.w3.org/1999/02/22-rdf-syntax-ns#">
      <rdf:Description rdf:about=""/>
   </rdf:RDF>
</x:xmpmeta>
                                                                                                    
                                                                                                    
                                                                                                    
                                                                                                    
                                                                                                    
                                                                                                    
                                                                                                    
                                                                                                    
                                                                                                    
                                                                                                    
                                                                                                    
                                                                                                    
                                                                                                    
                                                                                                    
                                                                                                    
                                                                                                    
                                                                                                    
                                                                                                    
                                                                                                    
                                                                                                    
                           
<?xpacket end="w"?></metadata>
<defs>
    <style>
      .cls-1 {
        fill: #fff;
        fill-rule: evenodd;
      }
    </style>
  </defs>
  <path id="Google_" data-name="Google +" class="cls-1" d="M611.314,4909.52h-6.951v2.53h4.178a3.738,3.738,0,0,1-.216.74,3.53,3.53,0,0,1-.492.83,4.012,4.012,0,0,1-.788.79,3.83,3.83,0,0,1-1.15.58,4.694,4.694,0,0,1-1.532.23,4.442,4.442,0,0,1-2.285-.62,4.715,4.715,0,0,1-1.663-6.36,4.59,4.59,0,0,1,1.663-1.7,4.442,4.442,0,0,1,2.285-.62,4.047,4.047,0,0,1,2.933,1.14l2-1.92a6.946,6.946,0,0,0-4.932-1.93,7.2,7.2,0,0,0-2.863.58,7.214,7.214,0,0,0-3.917,3.92,7.307,7.307,0,0,0,0,5.72,7.214,7.214,0,0,0,3.917,3.92,7.2,7.2,0,0,0,2.863.58,7.3,7.3,0,0,0,3.706-.92,6.266,6.266,0,0,0,2.491-2.55,7.708,7.708,0,0,0,.874-3.72,6.544,6.544,0,0,0-.12-1.22h0Zm6.729,0v-2.1h-2.109v2.1h-2.1v2.11h2.1v2.1h2.109v-2.1h2.1v-2.11h-2.1Z" transform="translate(-597 -4903.22)"/>
</svg>
