<svg xmlns="http://www.w3.org/2000/svg" width="11.688" height="11.15" viewBox="0 0 11.688 11.15">
  <metadata><?xpacket begin="﻿" id="W5M0MpCehiHzreSzNTczkc9d"?>
<x:xmpmeta xmlns:x="adobe:ns:meta/" x:xmptk="Adobe XMP Core 5.6-c140 79.160451, 2017/05/06-01:08:21        ">
   <rdf:RDF xmlns:rdf="http://www.w3.org/1999/02/22-rdf-syntax-ns#">
      <rdf:Description rdf:about=""/>
   </rdf:RDF>
</x:xmpmeta>
                                                                                                    
                                                                                                    
                                                                                                    
                                                                                                    
                                                                                                    
                                                                                                    
                                                                                                    
                                                                                                    
                                                                                                    
                                                                                                    
                                                                                                    
                                                                                                    
                                                                                                    
                                                                                                    
                                                                                                    
                                                                                                    
                                                                                                    
                                                                                                    
                                                                                                    
                                                                                                    
                           
<?xpacket end="w"?></metadata>
<defs>
    <style>
      .cls-1 {
        fill: #b7b7b7;
        fill-rule: evenodd;
      }
    </style>
  </defs>
  <path id="Star_4" class="cls-1" d="M627.6,2033.19a0.4,0.4,0,0,0-.394-0.32l-3.53-.51-1.582-3.2a0.35,0.35,0,0,0-.689,0l-1.582,3.2-3.529.51a0.389,0.389,0,0,0-.394.32,0.538,0.538,0,0,0,.176.34l2.559,2.49-0.605,3.52a0.949,0.949,0,0,0-.014.14,0.308,0.308,0,0,0,.3.35,0.592,0.592,0,0,0,.281-0.09l3.157-1.66,3.157,1.66a0.569,0.569,0,0,0,.281.09,0.3,0.3,0,0,0,.288-0.35,1.093,1.093,0,0,0-.006-0.14l-0.605-3.52,2.552-2.49A0.516,0.516,0,0,0,627.6,2033.19Z" transform="translate(-615.906 -2028.88)"/>
</svg>
