<svg xmlns="http://www.w3.org/2000/svg" width="15.438" height="15.44" viewBox="0 0 15.438 15.44">
  <metadata><?xpacket begin="﻿" id="W5M0MpCehiHzreSzNTczkc9d"?>
<x:xmpmeta xmlns:x="adobe:ns:meta/" x:xmptk="Adobe XMP Core 5.6-c140 79.160451, 2017/05/06-01:08:21        ">
   <rdf:RDF xmlns:rdf="http://www.w3.org/1999/02/22-rdf-syntax-ns#">
      <rdf:Description rdf:about=""/>
   </rdf:RDF>
</x:xmpmeta>
                                                                                                    
                                                                                                    
                                                                                                    
                                                                                                    
                                                                                                    
                                                                                                    
                                                                                                    
                                                                                                    
                                                                                                    
                                                                                                    
                                                                                                    
                                                                                                    
                                                                                                    
                                                                                                    
                                                                                                    
                                                                                                    
                                                                                                    
                                                                                                    
                                                                                                    
                                                                                                    
                           
<?xpacket end="w"?></metadata>
<defs>
    <style>
      .cls-1 {
        fill: #fff;
        fill-rule: evenodd;
      }
    </style>
  </defs>
  <path id="Instagram" class="cls-1" d="M508.714,4913.14a2.567,2.567,0,1,1,1.818-.75A2.482,2.482,0,0,1,508.714,4913.14Zm0-6.53a3.952,3.952,0,1,0,2.8,1.16A3.82,3.82,0,0,0,508.714,4906.61Zm4.119-1.08a0.925,0.925,0,0,0-.925.92,0.912,0.912,0,0,0,.272.66,0.923,0.923,0,0,0,1.305,0,0.912,0.912,0,0,0,.272-0.66A0.925,0.925,0,0,0,512.833,4905.53Zm-2.291-1.29q0.362,0,.97.03a8.612,8.612,0,0,1,1.034.1,4.374,4.374,0,0,1,.718.18,2.628,2.628,0,0,1,.884.59,2.588,2.588,0,0,1,.583.88,4.011,4.011,0,0,1,.186.72,7.984,7.984,0,0,1,.1,1.03c0.017,0.41.027,0.73,0.03,0.97s0,0.6,0,1.06,0,0.72,0,.77,0,0.3,0,.77,0,0.82,0,1.06-0.013.56-.03,0.97a7.984,7.984,0,0,1-.1,1.03,3.8,3.8,0,0,1-.186.72,2.629,2.629,0,0,1-.583.89,2.757,2.757,0,0,1-.884.58,4.374,4.374,0,0,1-.718.18,6.95,6.95,0,0,1-1.034.1q-0.609.03-.97,0.03-0.361.015-1.059,0h-1.537q-0.7.015-1.06,0-0.362,0-.969-0.03a6.979,6.979,0,0,1-1.035-.1,4.374,4.374,0,0,1-.718-0.18,2.768,2.768,0,0,1-.884-0.58,2.626,2.626,0,0,1-.582-0.89,3.8,3.8,0,0,1-.186-0.72,7.792,7.792,0,0,1-.1-1.03c-0.017-.41-0.027-0.73-0.03-0.97s0-.59,0-1.06,0.005-.72.005-0.77,0-.3-0.005-0.77,0-.82,0-1.06,0.013-.56.03-0.97a7.792,7.792,0,0,1,.1-1.03,4.011,4.011,0,0,1,.186-0.72,2.585,2.585,0,0,1,.582-0.88,2.638,2.638,0,0,1,.884-0.59,4.374,4.374,0,0,1,.718-0.18,8.652,8.652,0,0,1,1.035-.1q0.608-.03.969-0.03,0.361-.015,1.06,0h1.537Q510.18,4904.225,510.542,4904.24Zm5.836,3.15a4.262,4.262,0,0,0-4.48-4.48c-0.589-.04-1.65-0.05-3.184-0.05s-2.595.01-3.184,0.05a4.264,4.264,0,0,0-4.48,4.48q-0.05.885-.05,3.18c0,1.53.017,2.6,0.05,3.19a4.278,4.278,0,0,0,4.48,4.48c0.589,0.03,1.651.05,3.184,0.05s2.6-.02,3.184-0.05a4.277,4.277,0,0,0,4.48-4.48c0.034-.59.05-1.66,0.05-3.19s-0.016-2.59-.05-3.18h0Z" transform="translate(-501 -4902.84)"/>
</svg>
