<svg xmlns="http://www.w3.org/2000/svg" width="20.562" height="18" viewBox="0 0 20.562 18">
  <metadata><?xpacket begin="﻿" id="W5M0MpCehiHzreSzNTczkc9d"?>
<x:xmpmeta xmlns:x="adobe:ns:meta/" x:xmptk="Adobe XMP Core 5.6-c140 79.160451, 2017/05/06-01:08:21        ">
   <rdf:RDF xmlns:rdf="http://www.w3.org/1999/02/22-rdf-syntax-ns#">
      <rdf:Description rdf:about=""/>
   </rdf:RDF>
</x:xmpmeta>
                                                                                                    
                                                                                                    
                                                                                                    
                                                                                                    
                                                                                                    
                                                                                                    
                                                                                                    
                                                                                                    
                                                                                                    
                                                                                                    
                                                                                                    
                                                                                                    
                                                                                                    
                                                                                                    
                                                                                                    
                                                                                                    
                                                                                                    
                                                                                                    
                                                                                                    
                                                                                                    
                           
<?xpacket end="w"?></metadata>
<defs>
    <style>
      .cls-1 {
        fill: #31353d;
        fill-rule: evenodd;
      }
    </style>
  </defs>
  <path id="Add_carrt" data-name="Add carrt" class="cls-1" d="M449.286,1933.29a1.285,1.285,0,0,0,0,2.57h0.15l1.155,6.65a1.289,1.289,0,0,0,1.266,1.06h12.857a1.289,1.289,0,0,0,1.266-1.06l1.155-6.65h0.151a1.247,1.247,0,0,0,.909-0.38,1.231,1.231,0,0,0,.376-0.91,1.274,1.274,0,0,0-1.285-1.28h-18Zm3.535,8.03a0.643,0.643,0,0,1-.437-0.17,0.606,0.606,0,0,1-.206-0.42l-0.321-4.18a0.636,0.636,0,0,1,.156-0.47,0.646,0.646,0,0,1,.9-0.07,0.641,0.641,0,0,1,.226.44l0.321,4.18a0.632,0.632,0,0,1-.156.47,0.623,0.623,0,0,1-.436.22h-0.051Zm3.988-.19a0.633,0.633,0,0,1-.9,0,0.626,0.626,0,0,1-.191-0.45v-4.18a0.626,0.626,0,0,1,.191-0.45,0.633,0.633,0,0,1,.9,0,0.626,0.626,0,0,1,.191.45v4.18A0.626,0.626,0,0,1,456.809,1941.13Zm3.857,0a0.633,0.633,0,0,1-.9,0,0.626,0.626,0,0,1-.191-0.45v-4.18a0.626,0.626,0,0,1,.191-0.45,0.633,0.633,0,0,1,.9,0,0.626,0.626,0,0,1,.191.45v4.18A0.626,0.626,0,0,1,460.666,1941.13Zm3.521,0.02a0.643,0.643,0,0,1-.437.17H463.7a0.626,0.626,0,0,1-.437-0.22,0.636,0.636,0,0,1-.156-0.47l0.321-4.18a0.639,0.639,0,0,1,.227-0.44,0.645,0.645,0,0,1,.9.07,0.632,0.632,0,0,1,.156.47l-0.321,4.18A0.606,0.606,0,0,1,464.187,1941.15Zm-10.949-13.37a1.216,1.216,0,0,1,.8-0.28h1.677a0.626,0.626,0,0,0,.191.45,0.606,0.606,0,0,0,.452.19h3.857a0.606,0.606,0,0,0,.452-0.19,0.626,0.626,0,0,0,.191-0.45h1.677a1.216,1.216,0,0,1,.8.28,1.337,1.337,0,0,1,.457.72l0.934,4.14h1.326l-1.014-4.43a2.441,2.441,0,0,0-.894-1.44,2.53,2.53,0,0,0-1.608-.56h-1.677a0.626,0.626,0,0,0-.191-0.45,0.646,0.646,0,0,0-.452-0.19h-3.857a0.646,0.646,0,0,0-.452.19,0.626,0.626,0,0,0-.191.45h-1.677a2.525,2.525,0,0,0-1.607.56,2.431,2.431,0,0,0-.894,1.44l-1.015,4.43h1.326l0.934-4.14A1.337,1.337,0,0,1,453.238,1927.78Z" transform="translate(-448 -1925.56)"/>
</svg>
