<svg xmlns="http://www.w3.org/2000/svg" width="18" height="15.44" viewBox="0 0 18 15.44">
  <metadata><?xpacket begin="﻿" id="W5M0MpCehiHzreSzNTczkc9d"?>
<x:xmpmeta xmlns:x="adobe:ns:meta/" x:xmptk="Adobe XMP Core 5.6-c140 79.160451, 2017/05/06-01:08:21        ">
   <rdf:RDF xmlns:rdf="http://www.w3.org/1999/02/22-rdf-syntax-ns#">
      <rdf:Description rdf:about=""/>
   </rdf:RDF>
</x:xmpmeta>
                                                                                                    
                                                                                                    
                                                                                                    
                                                                                                    
                                                                                                    
                                                                                                    
                                                                                                    
                                                                                                    
                                                                                                    
                                                                                                    
                                                                                                    
                                                                                                    
                                                                                                    
                                                                                                    
                                                                                                    
                                                                                                    
                                                                                                    
                                                                                                    
                                                                                                    
                                                                                                    
                           
<?xpacket end="w"?></metadata>
<defs>
    <style>
      .cls-1 {
        fill: #31353d;
        fill-rule: evenodd;
      }
    </style>
  </defs>
  <path id="Wishlist" class="cls-1" d="M513.826,1935.13L508,1940.75l-5.836-5.63a5.274,5.274,0,0,1-1.878-3.56,4.431,4.431,0,0,1,.216-1.44,2.9,2.9,0,0,1,.552-0.99,2.827,2.827,0,0,1,.819-0.6,4.052,4.052,0,0,1,.944-0.31,6.126,6.126,0,0,1,.984-0.08,2.915,2.915,0,0,1,1.125.26,5,5,0,0,1,1.11.64,10.857,10.857,0,0,1,.869.73,8.482,8.482,0,0,1,.6.61,0.66,0.66,0,0,0,.984,0,8.482,8.482,0,0,1,.6-0.61,10.683,10.683,0,0,1,.869-0.73,5,5,0,0,1,1.11-.64,2.907,2.907,0,0,1,1.125-.26,6.126,6.126,0,0,1,.984.08,4.052,4.052,0,0,1,.944.31,2.841,2.841,0,0,1,.819.6,2.913,2.913,0,0,1,.552.99,4.431,4.431,0,0,1,.216,1.44,5.3,5.3,0,0,1-1.888,3.57h0Zm1.9-7.03a4.828,4.828,0,0,0-3.525-1.24,4.105,4.105,0,0,0-1.271.21,5.166,5.166,0,0,0-1.2.59c-0.372.24-.692,0.47-0.96,0.68s-0.522.45-.763,0.69q-0.361-.36-0.763-0.69c-0.268-.21-0.588-0.44-0.96-0.68a5.166,5.166,0,0,0-1.2-.59,4.11,4.11,0,0,0-1.271-.21,4.828,4.828,0,0,0-3.525,1.24,4.605,4.605,0,0,0-1.276,3.46,4.342,4.342,0,0,0,.236,1.38,6.121,6.121,0,0,0,.537,1.22,9.675,9.675,0,0,0,.683.98q0.382,0.48.558,0.66c0.117,0.12.209,0.2,0.276,0.26l6.268,6.04a0.609,0.609,0,0,0,.884,0l6.258-6.02a6.581,6.581,0,0,0,2.3-4.52A4.605,4.605,0,0,0,515.724,1928.1Z" transform="translate(-499 -1926.84)"/>
</svg>
