<svg xmlns="http://www.w3.org/2000/svg" width="32.16" height="25.718" viewBox="0 0 32.16 25.718">
  <metadata><?xpacket begin="﻿" id="W5M0MpCehiHzreSzNTczkc9d"?>
<x:xmpmeta xmlns:x="adobe:ns:meta/" x:xmptk="Adobe XMP Core 5.6-c140 79.160451, 2017/05/06-01:08:21        ">
   <rdf:RDF xmlns:rdf="http://www.w3.org/1999/02/22-rdf-syntax-ns#">
      <rdf:Description rdf:about=""/>
   </rdf:RDF>
</x:xmpmeta>
                                                                                                    
                                                                                                    
                                                                                                    
                                                                                                    
                                                                                                    
                                                                                                    
                                                                                                    
                                                                                                    
                                                                                                    
                                                                                                    
                                                                                                    
                                                                                                    
                                                                                                    
                                                                                                    
                                                                                                    
                                                                                                    
                                                                                                    
                                                                                                    
                                                                                                    
                                                                                                    
                           
<?xpacket end="w"?></metadata>
<defs>
    <style>
      .cls-1 {
        fill: #252525;
        fill-rule: evenodd;
      }
    </style>
  </defs>
  <path id="Payment" class="cls-1" d="M1294.68,775.428a2.692,2.692,0,0,0-2.68,2.679v20.357a2.69,2.69,0,0,0,2.68,2.678h26.78a2.673,2.673,0,0,0,2.68-2.678V778.107a2.675,2.675,0,0,0-2.68-2.679h-26.78Zm26.78,2.143a0.521,0.521,0,0,1,.38.159,0.5,0.5,0,0,1,.16.377v3.75h-27.86v-3.75a0.541,0.541,0,0,1,.16-0.377,0.521,0.521,0,0,1,.38-0.159h26.78ZM1294.68,799a0.521,0.521,0,0,1-.38-0.159,0.543,0.543,0,0,1-.16-0.377V788.285H1322v10.179a0.5,0.5,0,0,1-.16.377,0.521,0.521,0,0,1-.38.159h-26.78Zm5.89-2.143v-2.143h-4.28v2.143h4.28Zm8.57,0v-2.143h-6.43v2.143h6.43Z" transform="translate(-1292 -775.438)"/>
</svg>
