<svg xmlns="http://www.w3.org/2000/svg" width="32.16" height="19.281" viewBox="0 0 32.16 19.281">
  <metadata><?xpacket begin="﻿" id="W5M0MpCehiHzreSzNTczkc9d"?>
<x:xmpmeta xmlns:x="adobe:ns:meta/" x:xmptk="Adobe XMP Core 5.6-c140 79.160451, 2017/05/06-01:08:21        ">
   <rdf:RDF xmlns:rdf="http://www.w3.org/1999/02/22-rdf-syntax-ns#">
      <rdf:Description rdf:about=""/>
   </rdf:RDF>
</x:xmpmeta>
                                                                                                    
                                                                                                    
                                                                                                    
                                                                                                    
                                                                                                    
                                                                                                    
                                                                                                    
                                                                                                    
                                                                                                    
                                                                                                    
                                                                                                    
                                                                                                    
                                                                                                    
                                                                                                    
                                                                                                    
                                                                                                    
                                                                                                    
                                                                                                    
                                                                                                    
                                                                                                    
                           
<?xpacket end="w"?></metadata>
<defs>
    <style>
      .cls-1 {
        fill: #252525;
        fill-rule: evenodd;
      }
    </style>
  </defs>
  <path id="Return" class="cls-1" d="M1013.31,798.112l-2.68-3.214a0.511,0.511,0,0,0-.42-0.184h-9.64v-6.429h3.22a1.019,1.019,0,0,0,.75-0.318,1.057,1.057,0,0,0,.07-1.44l-5.361-6.428a1.1,1.1,0,0,0-1.641,0l-5.357,6.428a1.007,1.007,0,0,0-.251.687,1.086,1.086,0,0,0,1.071,1.071h3.215V798.33c0,0.034.005,0.1,0.016,0.193a0.462,0.462,0,0,0,.051.192c0.022,0.034.052,0.078,0.092,0.134a0.307,0.307,0,0,0,.15.117,0.652,0.652,0,0,0,.226.034h16.069a0.521,0.521,0,0,0,.38-0.159,0.5,0.5,0,0,0,.16-0.377,0.652,0.652,0,0,0-.12-0.352h0Zm10.51-7.366a1.019,1.019,0,0,0-.75-0.318h-3.21V780.384c0-.034-0.01-0.1-0.02-0.193a0.5,0.5,0,0,0-.05-0.192c-0.02-.034-0.05-0.078-0.09-0.134a0.324,0.324,0,0,0-.15-0.118,0.691,0.691,0,0,0-.23-0.033h-16.07a0.521,0.521,0,0,0-.38.159,0.541,0.541,0,0,0-.16.377,0.526,0.526,0,0,0,.12.335l2.68,3.214a0.494,0.494,0,0,0,.42.2h9.64v6.428h-3.21a1.058,1.058,0,0,0-.76.318,1.031,1.031,0,0,0-.31.754,0.986,0.986,0,0,0,.25.686l5.35,6.429a1.06,1.06,0,0,0,.82.385,1.031,1.031,0,0,0,.82-0.385l5.36-6.429a0.986,0.986,0,0,0,.25-0.686A1,1,0,0,0,1023.82,790.746Z" transform="translate(-992 -779.719)"/>
</svg>
