<svg xmlns="http://www.w3.org/2000/svg" width="28.938" height="23.594" viewBox="0 0 28.938 23.594">
  <metadata><?xpacket begin="﻿" id="W5M0MpCehiHzreSzNTczkc9d"?>
<x:xmpmeta xmlns:x="adobe:ns:meta/" x:xmptk="Adobe XMP Core 5.6-c140 79.160451, 2017/05/06-01:08:21        ">
   <rdf:RDF xmlns:rdf="http://www.w3.org/1999/02/22-rdf-syntax-ns#">
      <rdf:Description rdf:about=""/>
   </rdf:RDF>
</x:xmpmeta>
                                                                                                    
                                                                                                    
                                                                                                    
                                                                                                    
                                                                                                    
                                                                                                    
                                                                                                    
                                                                                                    
                                                                                                    
                                                                                                    
                                                                                                    
                                                                                                    
                                                                                                    
                                                                                                    
                                                                                                    
                                                                                                    
                                                                                                    
                                                                                                    
                                                                                                    
                                                                                                    
                           
<?xpacket end="w"?></metadata>
<defs>
    <style>
      .cls-1 {
        fill: #252525;
        fill-rule: evenodd;
      }
    </style>
  </defs>
  <path id="Free_Shiping" class="cls-1" d="M400.571,799a2.172,2.172,0,1,1,1.507-.636A2.058,2.058,0,0,1,400.571,799Zm-4.285-11.217a0.5,0.5,0,0,1,.15-0.368l3.265-3.265a0.5,0.5,0,0,1,.368-0.15h2.645v4.285h-6.428v-0.5ZM415.571,799a2.172,2.172,0,1,1,1.507-.636A2.058,2.058,0,0,1,415.571,799Zm6.111-21.111a1.03,1.03,0,0,0-.754-0.318H403.786a1.086,1.086,0,0,0-1.072,1.072v3.214h-2.678a2.914,2.914,0,0,0-1.825.753l-3.315,3.315a2.233,2.233,0,0,0-.376.5,2.959,2.959,0,0,0-.235.511,2.778,2.778,0,0,0-.109.619c-0.022.263-.036,0.455-0.042,0.578s0,0.335,0,.636,0.009,0.5.009,0.586v5.357a1.086,1.086,0,0,0-1.072,1.071,1.364,1.364,0,0,0,.067.444,0.638,0.638,0,0,0,.226.31c0.106,0.078.2,0.142,0.277,0.192a0.924,0.924,0,0,0,.393.1l0.377,0.033c0.067,0.006.209,0.006,0.427,0l0.376-.008h1.072a4.286,4.286,0,0,0,8.571,0h6.429a4.286,4.286,0,0,0,8.571,0l0.377,0.008c0.217,0.006.36,0.006,0.427,0l0.376-.033a0.929,0.929,0,0,0,.394-0.1q0.117-.075.276-0.192a0.638,0.638,0,0,0,.226-0.31,1.364,1.364,0,0,0,.067-0.444V778.643A1.03,1.03,0,0,0,421.682,777.889Z" transform="translate(-393.062 -777.562)"/>
</svg>
