<svg xmlns="http://www.w3.org/2000/svg" width="30" height="30" viewBox="0 0 30 30">
  <metadata><?xpacket begin="﻿" id="W5M0MpCehiHzreSzNTczkc9d"?>
<x:xmpmeta xmlns:x="adobe:ns:meta/" x:xmptk="Adobe XMP Core 5.6-c140 79.160451, 2017/05/06-01:08:21        ">
   <rdf:RDF xmlns:rdf="http://www.w3.org/1999/02/22-rdf-syntax-ns#">
      <rdf:Description rdf:about=""/>
   </rdf:RDF>
</x:xmpmeta>
                                                                                                    
                                                                                                    
                                                                                                    
                                                                                                    
                                                                                                    
                                                                                                    
                                                                                                    
                                                                                                    
                                                                                                    
                                                                                                    
                                                                                                    
                                                                                                    
                                                                                                    
                                                                                                    
                                                                                                    
                                                                                                    
                                                                                                    
                                                                                                    
                                                                                                    
                                                                                                    
                           
<?xpacket end="w"?></metadata>
<defs>
    <style>
      .cls-1 {
        fill: #252525;
        fill-rule: evenodd;
      }
    </style>
  </defs>
  <path id="Support" class="cls-1" d="M696.386,777.671a15.081,15.081,0,0,0-3.2,4.788,14.868,14.868,0,0,0,0,11.652,14.737,14.737,0,0,0,7.985,7.986,14.868,14.868,0,0,0,11.652,0,14.737,14.737,0,0,0,7.985-7.986,14.868,14.868,0,0,0,0-11.652,14.731,14.731,0,0,0-7.985-7.985,14.879,14.879,0,0,0-11.652,0A15.075,15.075,0,0,0,696.386,777.671Zm16.657-.736-3.247,3.248a8.569,8.569,0,0,0-5.592,0l-3.248-3.248a12.872,12.872,0,0,1,12.087,0h0Zm-18.9,11.35a12.8,12.8,0,0,1,1.506-6.043l3.248,3.248a8.566,8.566,0,0,0,0,5.591l-3.248,3.248A12.8,12.8,0,0,1,694.143,788.285Zm6.813,11.351,3.248-3.248a8.569,8.569,0,0,0,5.592,0l3.247,3.248a12.879,12.879,0,0,1-12.087,0h0Zm-0.385-11.351a6.431,6.431,0,1,1,1.884,4.546A6.194,6.194,0,0,1,700.571,788.285Zm15,0a8.607,8.607,0,0,0-.468-2.795l3.247-3.248a12.872,12.872,0,0,1,0,12.087l-3.247-3.248A8.608,8.608,0,0,0,715.571,788.285Z" transform="translate(-692 -773.281)"/>
</svg>
