<svg xmlns="http://www.w3.org/2000/svg" width="15.843" height="12.84" viewBox="0 0 15.843 12.84">
  <metadata><?xpacket begin="﻿" id="W5M0MpCehiHzreSzNTczkc9d"?>
<x:xmpmeta xmlns:x="adobe:ns:meta/" x:xmptk="Adobe XMP Core 5.6-c140 79.160451, 2017/05/06-01:08:21        ">
   <rdf:RDF xmlns:rdf="http://www.w3.org/1999/02/22-rdf-syntax-ns#">
      <rdf:Description rdf:about=""/>
   </rdf:RDF>
</x:xmpmeta>
                                                                                                    
                                                                                                    
                                                                                                    
                                                                                                    
                                                                                                    
                                                                                                    
                                                                                                    
                                                                                                    
                                                                                                    
                                                                                                    
                                                                                                    
                                                                                                    
                                                                                                    
                                                                                                    
                                                                                                    
                                                                                                    
                                                                                                    
                                                                                                    
                                                                                                    
                                                                                                    
                           
<?xpacket end="w"?></metadata>
<defs>
    <style>
      .cls-1 {
        fill: #fff;
        fill-rule: evenodd;
      }
    </style>
  </defs>
  <path id="Twitter" class="cls-1" d="M465.4,4906.17a3.149,3.149,0,0,0,1.426-1.79,6.177,6.177,0,0,1-2.059.79,3.243,3.243,0,0,0-5.615,2.22,3.521,3.521,0,0,0,.081.74,9.079,9.079,0,0,1-3.732-1,9.288,9.288,0,0,1-2.958-2.39,3.234,3.234,0,0,0,1,4.33,3.147,3.147,0,0,1-1.466-.41v0.04a3.152,3.152,0,0,0,.738,2.07,3.235,3.235,0,0,0,1.863,1.12,3.526,3.526,0,0,1-.853.11,4.629,4.629,0,0,1-.613-0.05,3.258,3.258,0,0,0,3.033,2.25,6.369,6.369,0,0,1-4.028,1.38,6.253,6.253,0,0,1-.783-0.04,9.02,9.02,0,0,0,4.982,1.46,9.362,9.362,0,0,0,3.244-.55,8.2,8.2,0,0,0,2.592-1.46,9.956,9.956,0,0,0,1.853-2.12,9.519,9.519,0,0,0,1.16-2.49,9.239,9.239,0,0,0,.382-2.61c0-.19,0-0.33-0.01-0.42a6.7,6.7,0,0,0,1.627-1.68,6.477,6.477,0,0,1-1.868.5h0Z" transform="translate(-451.438 -4904.16)"/>
</svg>
