<svg xmlns="http://www.w3.org/2000/svg" width="16.719" height="16.72" viewBox="0 0 16.719 16.72">
  <metadata><?xpacket begin="﻿" id="W5M0MpCehiHzreSzNTczkc9d"?>
<x:xmpmeta xmlns:x="adobe:ns:meta/" x:xmptk="Adobe XMP Core 5.6-c140 79.160451, 2017/05/06-01:08:21        ">
   <rdf:RDF xmlns:rdf="http://www.w3.org/1999/02/22-rdf-syntax-ns#">
      <rdf:Description rdf:about=""/>
   </rdf:RDF>
</x:xmpmeta>
                                                                                                    
                                                                                                    
                                                                                                    
                                                                                                    
                                                                                                    
                                                                                                    
                                                                                                    
                                                                                                    
                                                                                                    
                                                                                                    
                                                                                                    
                                                                                                    
                                                                                                    
                                                                                                    
                                                                                                    
                                                                                                    
                                                                                                    
                                                                                                    
                                                                                                    
                                                                                                    
                           
<?xpacket end="w"?></metadata>
<defs>
    <style>
      .cls-1 {
        fill: #31353d;
        fill-rule: evenodd;
      }
    </style>
  </defs>
  <path id="View" class="cls-1" d="M559.19,1933.38a0.317,0.317,0,0,0-.226-0.09h-2.25v-2.25a0.309,0.309,0,0,0-.1-0.23,0.329,0.329,0,0,0-.226-0.1H555.75a0.329,0.329,0,0,0-.226.1,0.306,0.306,0,0,0-.1.23v2.25h-2.249a0.316,0.316,0,0,0-.226.09,0.306,0.306,0,0,0-.1.23v0.64a0.323,0.323,0,0,0,.1.23,0.316,0.316,0,0,0,.226.09h2.249v2.25a0.323,0.323,0,0,0,.1.23,0.319,0.319,0,0,0,.226.09h0.643a0.319,0.319,0,0,0,.226-0.09,0.326,0.326,0,0,0,.1-0.23v-2.25h2.25a0.317,0.317,0,0,0,.226-0.09,0.323,0.323,0,0,0,.1-0.23v-0.64A0.306,0.306,0,0,0,559.19,1933.38Zm-3.119,5.05a4.508,4.508,0,1,1,3.179-1.32A4.335,4.335,0,0,1,556.071,1938.43Zm9.272,2.95-3.446-3.44a6.891,6.891,0,0,0,1.246-4.01,6.97,6.97,0,0,0-.558-2.75,7.083,7.083,0,0,0-1.506-2.26,7.279,7.279,0,0,0-2.26-1.51,7.138,7.138,0,0,0-5.5,0,7.268,7.268,0,0,0-2.26,1.51,7.085,7.085,0,0,0-1.507,2.26,7.067,7.067,0,0,0,0,5.5,7.2,7.2,0,0,0,1.507,2.26,7.073,7.073,0,0,0,2.26,1.5,6.981,6.981,0,0,0,2.747.56,6.887,6.887,0,0,0,4.008-1.25l3.445,3.44a1.272,1.272,0,0,0,1.814,0,1.225,1.225,0,0,0,.376-0.9,1.242,1.242,0,0,0-.371-0.91h0Z" transform="translate(-549 -1926.84)"/>
</svg>
