<svg xmlns="http://www.w3.org/2000/svg" width="16" height="13.719" viewBox="0 0 16 13.719">
  <metadata><?xpacket begin="﻿" id="W5M0MpCehiHzreSzNTczkc9d"?>
<x:xmpmeta xmlns:x="adobe:ns:meta/" x:xmptk="Adobe XMP Core 5.6-c140 79.160451, 2017/05/06-01:08:21        ">
   <rdf:RDF xmlns:rdf="http://www.w3.org/1999/02/22-rdf-syntax-ns#">
      <rdf:Description rdf:about=""/>
   </rdf:RDF>
</x:xmpmeta>
                                                                                                    
                                                                                                    
                                                                                                    
                                                                                                    
                                                                                                    
                                                                                                    
                                                                                                    
                                                                                                    
                                                                                                    
                                                                                                    
                                                                                                    
                                                                                                    
                                                                                                    
                                                                                                    
                                                                                                    
                                                                                                    
                                                                                                    
                                                                                                    
                                                                                                    
                                                                                                    
                           
<?xpacket end="w"?></metadata>
<defs>
    <style>
      .cls-1 {
        fill: #464646;
        fill-rule: evenodd;
      }
    </style>
  </defs>
  <path id="Wishlist" class="cls-1" d="M1459.85,75.609a5.294,5.294,0,0,1-1.67,3.178l-5.18,4.99-5.19-5a5.228,5.228,0,0,1-1.67-3.169c0-2.508,1.7-3.035,3.13-3.035,1.33,0,2.83,1.437,3.29,1.99a0.6,0.6,0,0,0,.88,0c0.46-.553,1.96-1.99,3.29-1.99C1458.16,72.574,1459.85,73.1,1459.85,75.609Zm1.15,0c0-2.615-1.6-4.177-4.27-4.177a4.572,4.572,0,0,1-7.46,0c-2.67,0-4.27,1.562-4.27,4.177a6.229,6.229,0,0,0,2.04,4l5.57,5.374a0.541,0.541,0,0,0,.39.161,0.558,0.558,0,0,0,.39-0.161l5.56-5.356C1459.03,79.545,1461,77.751,1461,75.609Z" transform="translate(-1445 -71.438)"/>
</svg>
