<svg xmlns="http://www.w3.org/2000/svg" width="18" height="12.84" viewBox="0 0 18 12.84">
  <metadata><?xpacket begin="﻿" id="W5M0MpCehiHzreSzNTczkc9d"?>
<x:xmpmeta xmlns:x="adobe:ns:meta/" x:xmptk="Adobe XMP Core 5.6-c140 79.160451, 2017/05/06-01:08:21        ">
   <rdf:RDF xmlns:rdf="http://www.w3.org/1999/02/22-rdf-syntax-ns#">
      <rdf:Description rdf:about=""/>
   </rdf:RDF>
</x:xmpmeta>
                                                                                                    
                                                                                                    
                                                                                                    
                                                                                                    
                                                                                                    
                                                                                                    
                                                                                                    
                                                                                                    
                                                                                                    
                                                                                                    
                                                                                                    
                                                                                                    
                                                                                                    
                                                                                                    
                                                                                                    
                                                                                                    
                                                                                                    
                                                                                                    
                                                                                                    
                                                                                                    
                           
<?xpacket end="w"?></metadata>
<defs>
    <style>
      .cls-1 {
        fill: #fff;
        fill-rule: evenodd;
      }
    </style>
  </defs>
  <path id="Youtube" class="cls-1" d="M559.556,4911.11l-5.143,3.22a0.627,0.627,0,0,1-.342.1,0.744,0.744,0,0,1-.311-0.08,0.6,0.6,0,0,1-.332-0.56v-6.43a0.642,0.642,0,0,1,.985-0.55l5.143,3.22a0.635,0.635,0,0,1,0,1.08h0Zm5.349-3.42a12.957,12.957,0,0,0-.216-1.48,2.3,2.3,0,0,0-.7-1.23,2.158,2.158,0,0,0-1.25-.59c-1.487-.16-3.733-0.25-6.74-0.25s-5.253.09-6.74,0.25a2.135,2.135,0,0,0-1.246.59,2.31,2.31,0,0,0-.693,1.23,11.47,11.47,0,0,0-.226,1.48c-0.05.56-.078,1.01-0.085,1.37s-0.01.87-.01,1.51,0,1.15.01,1.51,0.035,0.82.085,1.37a12.425,12.425,0,0,0,.216,1.48,2.364,2.364,0,0,0,.7,1.24,2.147,2.147,0,0,0,1.251.58,90.98,90.98,0,0,0,13.48,0,2.122,2.122,0,0,0,1.245-.58,2.376,2.376,0,0,0,.693-1.24,11.031,11.031,0,0,0,.227-1.48c0.05-.55.078-1.01,0.085-1.37s0.01-.87.01-1.51,0-1.14-.01-1.51S564.955,4908.25,564.905,4907.69Z" transform="translate(-547 -4904.16)"/>
</svg>
